<svg width="247" height="280" viewBox="0 0 247 280" fill="none" xmlns="http://www.w3.org/2000/svg">
<path d="M246.711 2.45451C246.711 2.45451 204.3 -7.34249 165.261 12.2095C134.046 27.8425 121.838 59.4705 121.838 59.4705C123.977 48.0405 131.011 34.9845 131.011 34.9845C107.551 44.0695 95.022 72.1135 95.022 72.1135L97.146 60.1895C64.297 86.3535 59.185 131.481 59.185 131.481C57.852 119.657 61.765 101.256 61.765 101.256C31.079 133.782 40.641 173.629 40.641 173.629L20.295 206.587L20.301 206.585C16.365 212.869 13.183 218.997 10.626 224.784C12.713 225.646 14.35 227.495 14.842 229.873C15.629 233.684 13.178 237.412 9.367 238.2C8.06 238.47 6.766 238.352 5.594 237.936C0.111002 254.805 0 270.823 0 270.823C0 270.823 5.579 260.641 13.538 253.3C23.406 244.198 33.1 239.213 33.1 239.213C34.937 221.289 42.29 205.045 42.29 205.045C39.263 202.6 35.744 201.246 32.67 200.497C103.631 55.8965 213.589 19.2355 213.589 19.2355C93.48 78.5965 51.48 187.722 51.48 187.722C93.937 185.992 108.454 160.033 108.454 160.033C97.577 161.364 91.983 159.584 91.983 159.584C116.105 156.246 132.956 140.192 132.956 140.192C117.254 144.808 103.345 144.238 103.345 144.238C143.755 134.467 162.015 113.576 162.015 113.576C150.6 116.265 140.311 116.763 140.311 116.763C169.554 102.567 185.19 79.3745 185.19 79.3745C170.252 83.2765 157.563 81.1675 157.563 81.1675C200.255 70.5335 212.012 49.9265 212.012 49.9265C199.411 54.5945 189.889 54.0305 189.889 54.0305C229.124 43.4965 246.711 2.45451 246.711 2.45451Z" fill="white"/>
<path d="M124.585 251.524C142.39 255.435 160.658 256.848 174.544 253.818C202.291 247.763 220.771 229.484 229.102 206.486C208.328 228.129 188.289 236.98 164.642 238.167C144.13 239.197 120.893 233.965 92.2241 232.427C28.7941 229.024 0.873047 275.273 0.873047 275.273C35.023 248.796 60.262 237.393 124.585 251.524Z" fill="white"/>
<path d="M112.35 259.029C55.7871 240.246 29.0731 254.549 9.81006 275.083C47.7251 251.419 70.687 264.63 120.145 276.302C179.634 290.341 199.417 248.978 199.417 248.978C181.699 263.829 157.785 274.117 112.35 259.029Z" fill="white"/>
</svg>
